<mxfile host="app.diagrams.net" modified="2023-10-25T17:27:44.802Z" agent="Mozilla/5.0 (Windows NT 10.0; Win64; x64) AppleWebKit/537.36 (KHTML, like Gecko) Chrome/118.0.0.0 Safari/537.36" etag="cfI6U4kCTZPMDKaR3HkJ" version="22.0.8" type="github">
  <diagram name="Página-1" id="MQ-bpehG7rwfpVfSygOb">
    <mxGraphModel dx="2261" dy="786" grid="1" gridSize="10" guides="1" tooltips="1" connect="1" arrows="1" fold="1" page="1" pageScale="1" pageWidth="827" pageHeight="1169" math="0" shadow="0">
      <root>
        <mxCell id="0" />
        <mxCell id="1" parent="0" />
        <mxCell id="Zxr0sCr1E32BGTMOj58B-1" value="Funcionário" style="rounded=0;whiteSpace=wrap;html=1;" vertex="1" parent="1">
          <mxGeometry x="140" y="260" width="150" height="40" as="geometry" />
        </mxCell>
        <mxCell id="Zxr0sCr1E32BGTMOj58B-3" value="departamento" style="rounded=0;whiteSpace=wrap;html=1;" vertex="1" parent="1">
          <mxGeometry x="140" y="470" width="150" height="40" as="geometry" />
        </mxCell>
        <mxCell id="Zxr0sCr1E32BGTMOj58B-4" value="projetos" style="rounded=0;whiteSpace=wrap;html=1;" vertex="1" parent="1">
          <mxGeometry x="550" y="260" width="150" height="40" as="geometry" />
        </mxCell>
        <mxCell id="Zxr0sCr1E32BGTMOj58B-6" value="trabalha" style="rhombus;whiteSpace=wrap;html=1;" vertex="1" parent="1">
          <mxGeometry x="380" y="180" width="80" height="80" as="geometry" />
        </mxCell>
        <mxCell id="Zxr0sCr1E32BGTMOj58B-8" value="pertence" style="rhombus;whiteSpace=wrap;html=1;" vertex="1" parent="1">
          <mxGeometry x="177.5" y="350" width="75" height="80" as="geometry" />
        </mxCell>
        <mxCell id="Zxr0sCr1E32BGTMOj58B-10" value="N" style="text;html=1;strokeColor=none;fillColor=none;align=center;verticalAlign=middle;whiteSpace=wrap;rounded=0;" vertex="1" parent="1">
          <mxGeometry x="310" y="210" width="60" height="30" as="geometry" />
        </mxCell>
        <mxCell id="Zxr0sCr1E32BGTMOj58B-12" value="N" style="text;html=1;strokeColor=none;fillColor=none;align=center;verticalAlign=middle;whiteSpace=wrap;rounded=0;" vertex="1" parent="1">
          <mxGeometry x="480" y="210" width="60" height="30" as="geometry" />
        </mxCell>
        <mxCell id="Zxr0sCr1E32BGTMOj58B-13" value="" style="endArrow=none;html=1;rounded=0;entryX=0;entryY=0.5;entryDx=0;entryDy=0;" edge="1" parent="1" target="Zxr0sCr1E32BGTMOj58B-6">
          <mxGeometry width="50" height="50" relative="1" as="geometry">
            <mxPoint x="290" y="279.5" as="sourcePoint" />
            <mxPoint x="360" y="320" as="targetPoint" />
          </mxGeometry>
        </mxCell>
        <mxCell id="Zxr0sCr1E32BGTMOj58B-14" value="" style="endArrow=none;html=1;rounded=0;entryX=0;entryY=0.5;entryDx=0;entryDy=0;exitX=1;exitY=0.5;exitDx=0;exitDy=0;" edge="1" parent="1" source="Zxr0sCr1E32BGTMOj58B-6">
          <mxGeometry width="50" height="50" relative="1" as="geometry">
            <mxPoint x="460" y="279.5" as="sourcePoint" />
            <mxPoint x="550" y="280" as="targetPoint" />
          </mxGeometry>
        </mxCell>
        <mxCell id="Zxr0sCr1E32BGTMOj58B-15" value="" style="endArrow=none;html=1;rounded=0;exitX=0.5;exitY=0;exitDx=0;exitDy=0;" edge="1" parent="1" source="Zxr0sCr1E32BGTMOj58B-8">
          <mxGeometry width="50" height="50" relative="1" as="geometry">
            <mxPoint x="214.5" y="360" as="sourcePoint" />
            <mxPoint x="214.5" y="300" as="targetPoint" />
          </mxGeometry>
        </mxCell>
        <mxCell id="Zxr0sCr1E32BGTMOj58B-19" value="" style="endArrow=none;html=1;rounded=0;exitX=0.5;exitY=0;exitDx=0;exitDy=0;entryX=0.5;entryY=1;entryDx=0;entryDy=0;" edge="1" parent="1" source="Zxr0sCr1E32BGTMOj58B-3" target="Zxr0sCr1E32BGTMOj58B-8">
          <mxGeometry width="50" height="50" relative="1" as="geometry">
            <mxPoint x="214.5" y="500" as="sourcePoint" />
            <mxPoint x="214.5" y="420" as="targetPoint" />
          </mxGeometry>
        </mxCell>
        <mxCell id="Zxr0sCr1E32BGTMOj58B-20" value="N" style="text;html=1;strokeColor=none;fillColor=none;align=center;verticalAlign=middle;whiteSpace=wrap;rounded=0;" vertex="1" parent="1">
          <mxGeometry x="220" y="320" width="20" height="10" as="geometry" />
        </mxCell>
        <mxCell id="Zxr0sCr1E32BGTMOj58B-21" value="1" style="text;html=1;strokeColor=none;fillColor=none;align=center;verticalAlign=middle;whiteSpace=wrap;rounded=0;" vertex="1" parent="1">
          <mxGeometry x="220" y="440" width="20" height="20" as="geometry" />
        </mxCell>
        <mxCell id="Zxr0sCr1E32BGTMOj58B-22" value="nome" style="ellipse;whiteSpace=wrap;html=1;" vertex="1" parent="1">
          <mxGeometry x="270" y="560" width="110" height="50" as="geometry" />
        </mxCell>
        <mxCell id="Zxr0sCr1E32BGTMOj58B-23" value="id" style="ellipse;whiteSpace=wrap;html=1;" vertex="1" parent="1">
          <mxGeometry x="40" y="560" width="110" height="50" as="geometry" />
        </mxCell>
        <mxCell id="Zxr0sCr1E32BGTMOj58B-24" value="salario" style="ellipse;whiteSpace=wrap;html=1;" vertex="1" parent="1">
          <mxGeometry x="285" y="130" width="110" height="50" as="geometry" />
        </mxCell>
        <mxCell id="Zxr0sCr1E32BGTMOj58B-25" value="nome" style="ellipse;whiteSpace=wrap;html=1;" vertex="1" parent="1">
          <mxGeometry x="160" y="80" width="110" height="50" as="geometry" />
        </mxCell>
        <mxCell id="Zxr0sCr1E32BGTMOj58B-26" value="id" style="ellipse;whiteSpace=wrap;html=1;" vertex="1" parent="1">
          <mxGeometry x="30" y="130" width="110" height="50" as="geometry" />
        </mxCell>
        <mxCell id="Zxr0sCr1E32BGTMOj58B-27" value="id" style="ellipse;whiteSpace=wrap;html=1;" vertex="1" parent="1">
          <mxGeometry x="700" y="160" width="110" height="50" as="geometry" />
        </mxCell>
        <mxCell id="Zxr0sCr1E32BGTMOj58B-28" value="nome" style="ellipse;whiteSpace=wrap;html=1;" vertex="1" parent="1">
          <mxGeometry x="700" y="350" width="110" height="50" as="geometry" />
        </mxCell>
        <mxCell id="Zxr0sCr1E32BGTMOj58B-29" value="data de entrega" style="ellipse;whiteSpace=wrap;html=1;" vertex="1" parent="1">
          <mxGeometry x="750" y="255" width="110" height="50" as="geometry" />
        </mxCell>
        <mxCell id="Zxr0sCr1E32BGTMOj58B-31" value="" style="endArrow=none;html=1;rounded=0;entryX=0;entryY=1;entryDx=0;entryDy=0;" edge="1" parent="1" target="Zxr0sCr1E32BGTMOj58B-27">
          <mxGeometry width="50" height="50" relative="1" as="geometry">
            <mxPoint x="680" y="260" as="sourcePoint" />
            <mxPoint x="730" y="210" as="targetPoint" />
          </mxGeometry>
        </mxCell>
        <mxCell id="Zxr0sCr1E32BGTMOj58B-32" value="" style="endArrow=none;html=1;rounded=0;entryX=0;entryY=0.5;entryDx=0;entryDy=0;exitX=1;exitY=0.5;exitDx=0;exitDy=0;" edge="1" parent="1" source="Zxr0sCr1E32BGTMOj58B-4" target="Zxr0sCr1E32BGTMOj58B-29">
          <mxGeometry width="50" height="50" relative="1" as="geometry">
            <mxPoint x="690" y="270" as="sourcePoint" />
            <mxPoint x="726" y="213" as="targetPoint" />
          </mxGeometry>
        </mxCell>
        <mxCell id="Zxr0sCr1E32BGTMOj58B-33" value="" style="endArrow=none;html=1;rounded=0;entryX=0;entryY=0;entryDx=0;entryDy=0;exitX=0.867;exitY=1.075;exitDx=0;exitDy=0;exitPerimeter=0;" edge="1" parent="1" source="Zxr0sCr1E32BGTMOj58B-4" target="Zxr0sCr1E32BGTMOj58B-28">
          <mxGeometry width="50" height="50" relative="1" as="geometry">
            <mxPoint x="710" y="290" as="sourcePoint" />
            <mxPoint x="760" y="290" as="targetPoint" />
          </mxGeometry>
        </mxCell>
        <mxCell id="Zxr0sCr1E32BGTMOj58B-34" value="" style="endArrow=none;html=1;rounded=0;entryX=0.5;entryY=0;entryDx=0;entryDy=0;exitX=1;exitY=1;exitDx=0;exitDy=0;" edge="1" parent="1" source="Zxr0sCr1E32BGTMOj58B-3" target="Zxr0sCr1E32BGTMOj58B-22">
          <mxGeometry width="50" height="50" relative="1" as="geometry">
            <mxPoint x="720" y="300" as="sourcePoint" />
            <mxPoint x="770" y="300" as="targetPoint" />
          </mxGeometry>
        </mxCell>
        <mxCell id="Zxr0sCr1E32BGTMOj58B-35" value="" style="endArrow=none;html=1;rounded=0;entryX=0.5;entryY=0;entryDx=0;entryDy=0;exitX=0;exitY=1;exitDx=0;exitDy=0;" edge="1" parent="1" source="Zxr0sCr1E32BGTMOj58B-3" target="Zxr0sCr1E32BGTMOj58B-23">
          <mxGeometry width="50" height="50" relative="1" as="geometry">
            <mxPoint x="300" y="520" as="sourcePoint" />
            <mxPoint x="335" y="570" as="targetPoint" />
          </mxGeometry>
        </mxCell>
        <mxCell id="Zxr0sCr1E32BGTMOj58B-36" value="" style="endArrow=none;html=1;rounded=0;entryX=0.5;entryY=1;entryDx=0;entryDy=0;exitX=0;exitY=0;exitDx=0;exitDy=0;" edge="1" parent="1" source="Zxr0sCr1E32BGTMOj58B-1" target="Zxr0sCr1E32BGTMOj58B-26">
          <mxGeometry width="50" height="50" relative="1" as="geometry">
            <mxPoint x="310" y="530" as="sourcePoint" />
            <mxPoint x="345" y="580" as="targetPoint" />
          </mxGeometry>
        </mxCell>
        <mxCell id="Zxr0sCr1E32BGTMOj58B-37" value="" style="endArrow=none;html=1;rounded=0;entryX=0.5;entryY=1;entryDx=0;entryDy=0;exitX=0.5;exitY=0;exitDx=0;exitDy=0;" edge="1" parent="1" source="Zxr0sCr1E32BGTMOj58B-1" target="Zxr0sCr1E32BGTMOj58B-25">
          <mxGeometry width="50" height="50" relative="1" as="geometry">
            <mxPoint x="150" y="270" as="sourcePoint" />
            <mxPoint x="95" y="220" as="targetPoint" />
          </mxGeometry>
        </mxCell>
        <mxCell id="Zxr0sCr1E32BGTMOj58B-38" value="" style="endArrow=none;html=1;rounded=0;entryX=0.5;entryY=1;entryDx=0;entryDy=0;exitX=1;exitY=0;exitDx=0;exitDy=0;" edge="1" parent="1" source="Zxr0sCr1E32BGTMOj58B-1" target="Zxr0sCr1E32BGTMOj58B-24">
          <mxGeometry width="50" height="50" relative="1" as="geometry">
            <mxPoint x="225" y="270" as="sourcePoint" />
            <mxPoint x="225" y="140" as="targetPoint" />
          </mxGeometry>
        </mxCell>
        <mxCell id="Zxr0sCr1E32BGTMOj58B-42" value="" style="endArrow=none;html=1;rounded=0;exitX=1;exitY=0.5;exitDx=0;exitDy=0;entryX=0;entryY=0.5;entryDx=0;entryDy=0;" edge="1" parent="1" source="Zxr0sCr1E32BGTMOj58B-44" target="Zxr0sCr1E32BGTMOj58B-1">
          <mxGeometry width="50" height="50" relative="1" as="geometry">
            <mxPoint x="390" y="430" as="sourcePoint" />
            <mxPoint x="406.7179882264861" y="413.2820117735139" as="targetPoint" />
          </mxGeometry>
        </mxCell>
        <mxCell id="Zxr0sCr1E32BGTMOj58B-44" value="projeto que coordena" style="ellipse;whiteSpace=wrap;html=1;" vertex="1" parent="1">
          <mxGeometry x="-50" y="255" width="110" height="50" as="geometry" />
        </mxCell>
        <mxCell id="Zxr0sCr1E32BGTMOj58B-45" value="coordena" style="rhombus;whiteSpace=wrap;html=1;" vertex="1" parent="1">
          <mxGeometry x="380" y="300" width="80" height="80" as="geometry" />
        </mxCell>
        <mxCell id="Zxr0sCr1E32BGTMOj58B-46" value="" style="endArrow=none;html=1;rounded=0;entryX=0;entryY=0.5;entryDx=0;entryDy=0;exitX=1;exitY=0.5;exitDx=0;exitDy=0;" edge="1" parent="1" source="Zxr0sCr1E32BGTMOj58B-1" target="Zxr0sCr1E32BGTMOj58B-45">
          <mxGeometry width="50" height="50" relative="1" as="geometry">
            <mxPoint x="300" y="289.5" as="sourcePoint" />
            <mxPoint x="390" y="230" as="targetPoint" />
          </mxGeometry>
        </mxCell>
        <mxCell id="Zxr0sCr1E32BGTMOj58B-47" value="" style="endArrow=none;html=1;rounded=0;entryX=0;entryY=0.5;entryDx=0;entryDy=0;exitX=1;exitY=0.5;exitDx=0;exitDy=0;" edge="1" parent="1" source="Zxr0sCr1E32BGTMOj58B-45" target="Zxr0sCr1E32BGTMOj58B-4">
          <mxGeometry width="50" height="50" relative="1" as="geometry">
            <mxPoint x="310" y="299.5" as="sourcePoint" />
            <mxPoint x="400" y="240" as="targetPoint" />
          </mxGeometry>
        </mxCell>
        <mxCell id="Zxr0sCr1E32BGTMOj58B-48" value="1" style="text;html=1;strokeColor=none;fillColor=none;align=center;verticalAlign=middle;whiteSpace=wrap;rounded=0;" vertex="1" parent="1">
          <mxGeometry x="480" y="320" width="60" height="30" as="geometry" />
        </mxCell>
        <mxCell id="Zxr0sCr1E32BGTMOj58B-49" value="1" style="text;html=1;strokeColor=none;fillColor=none;align=center;verticalAlign=middle;whiteSpace=wrap;rounded=0;" vertex="1" parent="1">
          <mxGeometry x="310" y="320" width="60" height="30" as="geometry" />
        </mxCell>
      </root>
    </mxGraphModel>
  </diagram>
</mxfile>
